HIERARCHY
ROOT Hips
{
  OFFSET 0 0 0
  CHANNELS 6 Xposition Yposition Zposition Zrotation Yrotation Xrotation
  JOINT LeftThigh
  {
    OFFSET 8.409438 0 -5.917753
    CHANNELS 3 Zrotation Yrotation Xrotation
    JOINT LeftLeg
    {
      OFFSET 0 0 -42.358652
      CHANNELS 3 Zrotation Yrotation Xrotation
      JOINT LeftFoot
      {
        OFFSET 0 0 -39.357303
        CHANNELS 3 Zrotation Yrotation Xrotation
      }
    }
  }
  JOINT RightThigh
  {
    OFFSET -8.409438 0 -5.917753
    CHANNELS 3 Zrotation Yrotation Xrotation
    JOINT RightLeg
    {
      OFFSET 0 0 -42.358652
      CHANNELS 3 Zrotation Yrotation Xrotation
      JOINT RightFoot
      {
        OFFSET 0 0 -39.357303
        CHANNELS 3 Zrotation Yrotation Xrotation
      }
    }
  }
  JOINT SpineLow
  {
    OFFSET 0 0 4.719101
    CHANNELS 3 Zrotation Yrotation Xrotation
    JOINT SpineMid
    {
      OFFSET 0 0 12.899191
      CHANNELS 3 Zrotation Yrotation Xrotation
      JOINT Chest
      {
        OFFSET 0 0 12.899191
        CHANNELS 3 Zrotation Yrotation Xrotation
        JOINT LeftShoulder
        {
          OFFSET 7.550562 1.41573 9.438202
          CHANNELS 3 Zrotation Yrotation Xrotation
          JOINT LeftArm
          {
            OFFSET 9.155056 0 4.247191
            CHANNELS 3 Zrotation Yrotation Xrotation
            JOINT LeftForearm
            {
              OFFSET 0 0 25.771955
              CHANNELS 3 Zrotation Yrotation Xrotation
              JOINT LeftHand
              {
                OFFSET 0 0 25.197169
                CHANNELS 3 Zrotation Yrotation Xrotation
              }
            }
          }
        }
        JOINT RightShoulder
        {
          OFFSET -7.550562 1.41573 9.438202
          CHANNELS 3 Zrotation Yrotation Xrotation
          JOINT RightArm
          {
            OFFSET -9.155056 0 4.247191
            CHANNELS 3 Zrotation Yrotation Xrotation
            JOINT RightForearm
            {
              OFFSET 0 0 -25.771955
              CHANNELS 3 Zrotation Yrotation Xrotation
              JOINT RightHand
              {
                OFFSET 0 0 -25.197169
                CHANNELS 3 Zrotation Yrotation Xrotation
              }
            }
          }
        }
        JOINT Neck
        {
          OFFSET 0 0 15.101124
          CHANNELS 3 Zrotation Yrotation Xrotation
          JOINT Head
          {
            OFFSET 0 0 11.325843
            CHANNELS 3 Zrotation Yrotation Xrotation
            End Site
            {
              OFFSET 0 0 14.157303
            }
          }
        }
      }
    }
  }
}
MOTION
Frames: 5
Frame Time: 0.01
0.0  101.685394  0.0  4.662498  45.362219  -95.149001  15.328947  -16.954304  0.233413  -15.553331  11.601234  18.164237  1.078101  1.044706  1.631355  -31.341775  23.223646  1.402068  -7.345069  3.973976  15.799646  -0.022932  2.194942  -2.992455  2.693931  0.749769  1.121159  7.39847  1.921191  3.144492  7.39847  1.921191  3.144492  -7.720687  16.51194  10.205304  123.025138  34.005106  165.585928  -23.205235  13.744815  100.209193  49.841504  -15.752513  -0.05949  8.781418  3.942157  -0.204717  -172.946102  64.833215  158.941222  -18.542042  57.774603  -51.801452  85.145462  -13.73064  28.277299  -14.22021  -1.756242  -1.97635  -10.67013  -1.272018  -1.524013  
0.0  101.685394  0.0  4.890857  43.808017  -94.84892  15.289745  -16.820162  0.120072  -15.017921  11.823274  18.68257  1.70087  1.255174  1.569114  -31.058213  23.296991  0.807884  -6.944774  3.913485  15.790039  0.302324  2.215595  -3.049938  3.213515  0.889133  1.06719  8.824361  2.283205  3.030293  8.824361  2.283206  3.030294  -8.021709  13.824674  11.589475  125.732365  30.994387  163.766807  -24.648913  15.416634  100.239866  47.828976  -17.975099  2.087487  8.252698  5.435756  -0.799733  178.442943  59.258558  153.184541  -0.113712  58.053514  -30.485987  84.583279  -8.605233  25.692194  -14.897404  -2.317561  -1.448703  -11.177093  -1.704064  -1.143725  
0.0  101.685394  0.0  4.953871  42.610562  -94.996202  15.320063  -16.794847  0.293818  -14.900128  11.929749  19.023293  2.115704  1.461902  1.56023  -30.388017  23.405234  0.80887  -7.14627  3.955854  15.745992  0.664062  2.212879  -3.067806  3.490246  0.908298  1.057522  9.581542  2.323805  3.015804  9.581542  2.323805  3.015804  -7.221907  11.427046  13.15922  127.955201  27.528277  163.290094  -25.423259  16.01343  100.593429  47.048481  -19.51984  3.010514  9.04221  7.249892  -0.923343  172.009222  54.418142  150.063717  10.861354  53.256168  -20.327667  81.370937  -4.458257  26.494203  -14.968955  -2.463192  -0.950737  -11.228846  -1.825408  -0.773879  
0.0  101.685394  0.0  4.858688  41.912871  -95.45209  15.38427  -16.817384  0.658625  -15.051084  11.838517  19.209492  2.451267  1.570756  1.616128  -29.671385  23.464558  1.198819  -7.642886  4.089636  15.743135  1.020746  2.206974  -3.07151  3.628573  0.868238  1.106548  9.959117  2.200723  3.147999  9.959117  2.200722  3.147999  -6.620802  10.302844  14.281851  129.669594  24.375523  162.749345  -25.598111  16.34994  101.283087  47.877716  -20.055733  2.906874  9.565156  9.337235  -0.870477  167.797841  50.59124  148.644113  11.125028  47.700024  -20.281346  80.932003  -2.15493  29.542459  -14.91554  -2.574272  -0.571344  -11.187187  -1.918115  -0.491669  
0.0  101.685394  0.0  4.547906  41.617312  -96.072264  15.587635  -16.929005  1.020928  -15.334087  11.565814  19.293878  2.293011  1.667959  1.662942  -29.368429  23.461374  1.604743  -8.229803  4.189179  15.792958  1.46124  2.231485  -3.065844  3.700813  0.882753  1.156058  10.158941  2.229126  3.287529  10.15894  2.229126  3.287529  -5.485598  9.492357  15.074074  130.308236  21.756011  161.78712  -25.455745  15.738664  102.006738  49.040621  -20.32992  3.170273  9.053594  11.191717  -0.246129  165.949964  47.556995  148.462358  7.691136  43.509931  -22.991802  86.171621  -3.8795  31.938835  -15.135251  -3.14444  -0.234502  -11.349793  -2.354234  -0.253987  
